<svg width="512" height="512" viewBox="0 0 512 512" fill="none" xmlns="http://www.w3.org/2000/svg">
<path d="M417.185 4.74075H94.8148C45.0683 4.74075 4.74074 45.0683 4.74074 94.8148V417.185C4.74074 466.932 45.0683 507.259 94.8148 507.259H417.185C466.932 507.259 507.259 466.932 507.259 417.185V94.8148C507.259 45.0683 466.932 4.74075 417.185 4.74075Z" fill="url(#paint0_linear_414_20)"/>
<path d="M417.185 4.74075H94.8148C45.0683 4.74075 4.74074 45.0683 4.74074 94.8148V417.185C4.74074 466.932 45.0683 507.259 94.8148 507.259H417.185C466.932 507.259 507.259 466.932 507.259 417.185V94.8148C507.259 45.0683 466.932 4.74075 417.185 4.74075Z" stroke="url(#paint1_linear_414_20)"/>
<path fill-rule="evenodd" clip-rule="evenodd" d="M318.805 380.151V380.447H210.641V346.428H237.246L223.289 307.174H131.262L116.869 346.428H143.91V380.447H39.2344V346.428H81.5407L152.197 157.576H109.89V123.556H198.865L277.702 346.131H291.119V157.279H250.994V123.259H363.084C395.068 123.259 419.347 129.074 435.921 140.705C452.785 152.336 461.217 169.055 461.217 190.862C461.217 202.783 458.164 213.833 452.058 224.009C445.952 234.186 437.374 242.183 426.325 247.998C438.829 252.359 449.15 259.919 457.292 270.677C465.434 281.145 469.504 294.229 469.504 309.931C469.504 330.575 462.381 347.439 448.133 360.524C434.176 373.608 412.514 380.151 383.147 380.151H318.805ZM379.657 345.695H330.373V265.444H382.274C397.103 265.444 408.443 268.788 416.294 275.475C424.145 282.162 428.07 291.904 428.07 304.697C428.07 318.363 423.853 328.685 415.422 335.663C407.28 342.351 395.359 345.695 379.657 345.695ZM382.71 235.785H330.373V157.279H367.881C402.482 157.279 419.783 170.363 419.783 196.532C419.783 208.453 416.585 218.048 410.188 225.318C404.082 232.296 394.923 235.785 382.71 235.785ZM212.385 276.208H142.601L179.238 169.352L212.385 276.208Z" fill="url(#paint2_linear_414_20)"/>
<defs>
<linearGradient id="paint0_linear_414_20" x1="218.667" y1="-37.3333" x2="426.667" y2="693.333" gradientUnits="userSpaceOnUse">
<stop offset="0.65623" stop-color="white"/>
<stop offset="1" stop-color="#59C22A"/>
</linearGradient>
<linearGradient id="paint1_linear_414_20" x1="11.959" y1="34.1784" x2="357.333" y2="485.333" gradientUnits="userSpaceOnUse">
<stop stop-color="#59C22A"/>
<stop offset="1" stop-color="#01AFF0"/>
</linearGradient>
<linearGradient id="paint2_linear_414_20" x1="-71.8412" y1="279.704" x2="410.297" y2="534.91" gradientUnits="userSpaceOnUse">
<stop offset="0.19415" stop-color="#59C22A"/>
<stop offset="0.411246" stop-color="#06B0E3"/>
<stop offset="0.485148" stop-color="#06B0E3"/>
<stop offset="0.606536" stop-color="#06B0E3"/>
<stop offset="0.771399" stop-color="#06B0E3"/>
<stop offset="1" stop-color="#59C22A"/>
</linearGradient>
</defs>
</svg>
