<svg width="25" height="18" viewBox="0 0 25 18" fill="none" xmlns="http://www.w3.org/2000/svg">
<path d="M24.4681 0H0.531888C0.528265 0 0.524694 0.000356983 0.521122 0.000408012L0.521173 0.000561406C0.232449 0.00632775 0 0.241574 0 0.532034V16.4923C0 16.7864 0.238214 17.0244 0.531888 17.0244H24.4681C24.7618 17.0244 25 16.7864 25 16.4923V0.532034C25 0.237951 24.7618 0 24.4681 0ZM23.184 1.06407L16.1136 8.13575C16.1135 8.13585 16.1134 8.1359 16.1133 8.136L12.5 11.75L8.88673 8.136C8.88653 8.1358 8.88633 8.13564 8.88607 8.13539L1.81602 1.06407H23.184ZM1.06383 1.81629L7.75847 8.51214L1.06383 15.208V1.81629ZM1.81602 15.9603L8.51066 9.26442L12.124 12.8784C12.3091 13.0636 12.5986 13.1559 12.8762 12.8784L16.4894 9.26447L23.1841 15.9603H1.81602ZM23.9362 15.2079L17.2416 8.51214L23.9362 1.81635V15.2079Z" fill="#00AFF0"/>
</svg>
