<svg width="28" height="26" viewBox="0 0 28 26" fill="none" xmlns="http://www.w3.org/2000/svg">
<path d="M14.9237 20.3235L9.5194 25.7005C9.35765 25.7974 9.14731 26.0396 8.71038 25.9104C8.48391 25.8297 8.20879 25.5713 8.1603 25.2807V25.2645L6.60693 15.9961L7.86906 15.0435C8.03248 15.1391 11.1512 16.9641 10.9595 16.8519L14.9236 19.1771C15.2311 19.5 15.2311 20.0006 14.9237 20.3235Z" fill="#009AE4"/>
<path d="M27.5987 0.969252L22.6903 25.2971C22.6417 25.5555 22.4476 25.7815 22.1887 25.8784C22.0916 25.9269 21.9945 25.943 21.8974 25.943C21.7356 25.943 21.5738 25.8946 21.4282 25.7977C21.2654 25.6816 9.34357 17.1835 10.1019 17.7241C2.88334 14.1556 6.64868 16.0312 0.45305 12.9446C0.161804 12.7993 0 12.5086 0 12.2018C0.0161804 11.8789 0.194164 11.6044 0.485411 11.4752L26.4823 0.0650139C26.7574 -0.0480159 27.081 -0.0157217 27.3075 0.178044C27.3399 0.210338 27.3884 0.258779 27.4208 0.291073C27.5826 0.484839 27.6473 0.727045 27.5987 0.969252Z" fill="#25D9F8"/>
<path d="M27.4208 0.291016L10.9595 16.8521L10.102 17.724L8.71044 25.9106C8.48397 25.8299 8.20885 25.5715 8.16036 25.2809V25.2647L6.60699 15.9963L7.86912 15.0437L27.4208 0.291016Z" fill="#00C0F1"/>
</svg>
