<svg width="20" height="25" viewBox="0 0 20 25" fill="none" xmlns="http://www.w3.org/2000/svg">
<path d="M19.318 20.2521L19.3182 20.2524C19.6097 20.6411 19.5412 21.2035 19.1816 21.5008L19.1812 21.5012L17.9475 22.5237L17.9385 22.5312L17.9353 22.5341C17.9342 22.5351 17.9329 22.5362 17.9314 22.5375C16.336 23.839 14.0155 23.9506 11.2855 22.632L11.2851 22.6318C8.95019 21.5069 6.55827 19.4316 4.56324 16.7729C2.57234 14.114 1.20792 11.1785 0.710358 8.51829C0.132911 5.43074 0.765135 3.07306 2.31616 1.72746L2.31623 1.72754L2.32419 1.72033C2.3211 1.72313 2.44483 1.62011 2.62031 1.474C2.71722 1.39332 2.8299 1.29949 2.94573 1.20309L3.37839 0.843045L3.52072 0.724617L3.56057 0.691459L3.57107 0.682726L3.57345 0.680745L3.57376 0.680488L3.57396 0.680318C3.91882 0.39572 4.41547 0.451553 4.69498 0.824325C4.69499 0.82434 4.69501 0.824355 4.69502 0.82437L7.89542 5.09421C7.89548 5.09429 7.89554 5.09437 7.89561 5.09445C8.18619 5.48317 8.11657 6.04648 7.75851 6.34275L7.75805 6.34313L6.52467 7.36617L6.52429 7.36648C6.284 7.56619 6.08884 7.90103 5.95863 8.29156C5.82388 8.6957 5.74333 9.2036 5.76699 9.7951C5.81448 10.9826 6.281 12.5025 7.56747 14.2192L7.56755 14.2193C8.85545 15.9368 10.1684 16.7693 11.2821 17.0909C11.8365 17.251 12.3385 17.2832 12.7554 17.2351C13.1592 17.1886 13.5229 17.0614 13.7655 16.8608L13.766 16.8604L14.9996 15.8379L15.0003 15.8373C15.3411 15.5538 15.8373 15.6076 16.1183 15.9814C16.1183 15.9815 16.1184 15.9816 16.1185 15.9817L19.318 20.2521Z" stroke="#00AFF0"/>
</svg>
