<svg width="16" height="25" viewBox="0 0 16 25" fill="none" xmlns="http://www.w3.org/2000/svg">
<path d="M8.88805 22.4911C8.52011 22.8771 8.21385 23.1792 8 23.3844C7.78615 23.1792 7.47989 22.8771 7.11195 22.4911C6.37285 21.7155 5.38764 20.6039 4.40334 19.2603C2.42267 16.5567 0.5 12.987 0.5 9.36005C0.5 6.98706 1.30638 4.72408 2.72323 3.06635C4.13802 1.41105 6.03848 0.5 8 0.5C9.96152 0.5 11.862 1.41105 13.2768 3.06635C14.6936 4.72408 15.5 6.98706 15.5 9.36005C15.5 12.987 13.5773 16.5567 11.5967 19.2603C10.6124 20.6039 9.62715 21.7155 8.88805 22.4911ZM5.57559 13.46C6.28477 14.0144 7.12848 14.3172 8 14.3172C9.17056 14.3172 10.2739 13.7725 11.0738 12.8366C11.8717 11.9031 12.3095 10.6516 12.3095 9.36005C12.3095 8.39555 12.0654 7.44773 11.6017 6.63582C11.1378 5.82362 10.4711 5.17758 9.6759 4.79222C8.87901 4.40602 7.99623 4.30308 7.14346 4.50154C6.292 4.6997 5.52235 5.18596 4.92617 5.8835C4.3306 6.58032 3.93179 7.45945 3.77075 8.4067C3.6097 9.354 3.6919 10.3365 4.00912 11.2326C4.32635 12.1287 4.8677 12.9065 5.57559 13.46Z" stroke="#00AFF0"/>
</svg>
