<svg width="60" height="60" viewBox="0 0 60 60" fill="none" xmlns="http://www.w3.org/2000/svg">
<path fill-rule="evenodd" clip-rule="evenodd" d="M51.9492 0H8.05078C5.9163 0.00235737 3.86993 0.851319 2.36062 2.36062C0.851319 3.86993 0.00235737 5.9163 0 8.05078L0 51.9492C0.00241928 54.0837 0.851401 56.13 2.36069 57.6393C3.86998 59.1486 5.91632 59.9976 8.05078 60H51.9492C54.0837 59.9976 56.13 59.1486 57.6393 57.6393C59.1486 56.13 59.9976 54.0837 60 51.9492V8.05078C59.9976 5.91632 59.1486 3.86998 57.6393 2.36069C56.13 0.851401 54.0837 0.00241928 51.9492 0ZM30.9943 13.5954L44.9062 27.5074C45.4061 28.0089 45.6867 28.688 45.6867 29.396C45.6867 30.1039 45.4061 30.7831 44.9062 31.2845L43.4215 32.7697C42.92 33.2698 42.2406 33.5506 41.5324 33.5506C40.8242 33.5506 40.1449 33.2698 39.6434 32.7697L30 23.1255L20.3555 32.7701C19.8541 33.2701 19.1749 33.5509 18.4669 33.5509C17.7588 33.5509 17.0796 33.2701 16.5783 32.7701L15.0938 31.2845C14.5936 30.7832 14.3128 30.104 14.3128 29.396C14.3128 28.6879 14.5936 28.0087 15.0938 27.5074L29.0057 13.5955C29.2694 13.3318 29.6271 13.1837 30 13.1837C30.3729 13.1837 30.7306 13.3317 30.9943 13.5954ZM41.5324 30.6813L30.9943 20.1429C30.7306 19.8792 30.3729 19.731 30 19.731C29.6271 19.731 29.2694 19.8792 29.0057 20.1429L18.4673 30.6809L17.1826 29.396L30 16.5785L42.818 29.396L41.5324 30.6813ZM30.9943 26.8618L44.9062 40.773C45.4061 41.2744 45.6867 41.9535 45.6867 42.6615C45.6867 43.3694 45.4061 44.0485 44.9062 44.5499L43.4215 46.0359C42.9201 46.5358 42.241 46.8164 41.5331 46.8164C40.8251 46.8164 40.146 46.5358 39.6446 46.0359L30.0001 36.3914L20.3556 46.0359C19.8541 46.5357 19.175 46.8163 18.4671 46.8163C17.7591 46.8163 17.08 46.5357 16.5785 46.0359L15.0938 44.55C14.5937 44.0487 14.3128 43.3696 14.3128 42.6615C14.3128 41.9535 14.5937 41.2743 15.0938 40.773L29.0057 26.8614C29.2694 26.5977 29.6271 26.4495 30 26.4495C30.3729 26.4495 30.7306 26.5981 30.9943 26.8618ZM41.5324 43.9465L30.9943 33.4085C30.7306 33.1448 30.3729 32.9967 30 32.9967C29.6271 32.9967 29.2694 33.1448 29.0057 33.4085L18.4673 43.9465L17.1825 42.6621L30 29.8445L42.818 42.6621L41.5324 43.9465Z" fill="url(#paint0_linear_89_17)"/>
<defs>
<linearGradient id="paint0_linear_89_17" x1="30" y1="60" x2="30" y2="0" gradientUnits="userSpaceOnUse">
<stop stop-color="#59C22A"/>
<stop offset="0.12" stop-color="#59C22A"/>
<stop offset="0.441" stop-color="#25B4D2"/>
<stop offset="0.74" stop-color="#0AACDE"/>
<stop offset="1" stop-color="white"/>
</linearGradient>
</defs>
</svg>
